<?xml version="1.0" encoding="utf-8"?>
<!-- Generator: Adobe Illustrator 16.0.3, SVG Export Plug-In . SVG Version: 6.00 Build 0)  -->
<!DOCTYPE svg PUBLIC "-//W3C//DTD SVG 1.1//EN" "http://www.w3.org/Graphics/SVG/1.1/DTD/svg11.dtd">
<svg version="1.1" id="Capa_1" xmlns="http://www.w3.org/2000/svg" xmlns:xlink="http://www.w3.org/1999/xlink" x="0px" y="0px"
	 width="85.04px" height="85.04px" viewBox="0 0 85.04 85.04" enable-background="new 0 0 85.04 85.04" xml:space="preserve">
<path d="M80.117,15.882c-0.266-1.063-1.33-1.594-2.393-1.594h-7.973V6.315c0-1.063-0.531-2.126-1.594-2.392
	c-1.063-0.532-2.127-0.266-2.924,0.531l-10.629,10.63c-0.533,0.531-0.799,1.063-0.799,1.86v9.567L38.66,41.66
	c-1.063,1.063-1.063,2.657,0,3.721c0.532,0.531,1.329,0.797,1.86,0.797s1.328-0.266,1.86-0.797l15.147-15.148h9.568
	c0.797,0,1.328-0.266,1.859-0.797l10.631-10.63C80.383,18.008,80.648,16.945,80.117,15.882z"/>
<path d="M46.1,49.1c-1.328,1.596-3.454,2.393-5.58,2.393s-4.252-0.797-5.581-2.393c-3.189-3.188-3.189-8.237,0-11.16l7.441-7.441
	c-0.532-0.266-1.329-0.266-1.86-0.266c-7.441,0-13.288,5.847-13.288,13.288s5.847,13.287,13.288,13.287s13.287-5.846,13.287-13.287
	c0-0.531,0-1.329-0.266-1.86L46.1,49.1z"/>
<path d="M72.676,33.156c-1.328,1.595-3.455,2.392-5.58,2.392h-7.441l-1.861,1.86c0.797,1.86,1.064,3.986,1.064,6.112
	c0,10.365-8.238,18.603-18.603,18.603c-10.364,0-18.603-8.238-18.603-18.603c0-10.364,8.238-18.603,18.603-18.603
	c2.126,0,4.251,0.532,6.113,1.063l2.125-1.594v-7.441c0-2.126,0.797-4.252,2.393-5.581l2.656-2.658
	c-4.252-1.594-8.504-2.392-13.021-2.392c-20.463,0-37.205,16.742-37.205,37.205c0,20.462,16.742,37.205,37.205,37.205
	c20.462,0,37.205-16.742,37.205-37.205c0-4.518-0.797-8.77-2.391-13.022L72.676,33.156z"/>
</svg>
