<?xml version="1.0" encoding="utf-8"?>
<!-- Generator: Adobe Illustrator 16.0.3, SVG Export Plug-In . SVG Version: 6.00 Build 0)  -->
<!DOCTYPE svg PUBLIC "-//W3C//DTD SVG 1.1//EN" "http://www.w3.org/Graphics/SVG/1.1/DTD/svg11.dtd">
<svg version="1.1" id="Capa_1" xmlns="http://www.w3.org/2000/svg" xmlns:xlink="http://www.w3.org/1999/xlink" x="0px" y="0px"
	 width="85.04px" height="85.04px" viewBox="0 0 85.04 85.04" enable-background="new 0 0 85.04 85.04" xml:space="preserve">
<path fill="#FFFFFF" stroke="#000000" stroke-miterlimit="10" d="M57.703,38.923c-0.41,0.409-1.072,0.304-1.372,0.146
	c-0.299-0.158-3.469-4.419-3.469-4.419l-0.115,0.071l-4.517,2.801l2.526,3.992c0,0,0.854,1.19,0.222,2.031
	c-0.632,0.841-1.626,1.05-2.959-0.701c-1.333-1.75-2.354-3.513-2.354-3.513l-1.787,1.482c0,0-2.994-3.198-3.274-6.279
	c-0.28-3.082-0.794-6.583-1.309-6.349l-1.31-1.961l1.684-1.308c0,0-9.872-11.532-13.099-13.399c-3.228-1.867-7.998-7.33-13.705-6.28
	C9.438,5.869,7.533,12.312,6.69,15.743s-1.122,8.894-1.193,11.835c-0.07,2.94,0.562,26.541,0.351,26.962
	c-0.21,0.42-0.28,2.73-1.403,0c-1.122-2.732-3.718-18.839-3.157-26.473c0.561-7.633,0.701-22.2,8.701-26.822
	c7.999-4.622,17.121,4.973,19.016,6.723c1.895,1.751,7.508,6.303,11.999,12.045c0.968,1.239,2.086,2.637,2.039,2.578
	c-0.047-0.058,0.066-0.126,0.066-0.126l1.333-1.05c0,0,0.982,2.451,3.157,3.361c2.175,0.911,6.946,2.767,8.771,6.093
	c0,0,0.313,0.38,0.037,0.56c-0.046,0.079-0.147,0.139-0.283,0.273c-0.39,0.382-1.05,0.962-1.05,0.962l-0.081-0.117l0.041,0.062
	l2.67,3.863C57.703,36.472,58.756,37.873,57.703,38.923z"/>
<path fill="#FFFFFF" stroke="#000000" stroke-miterlimit="10" d="M26.069,22.578c0.544,0.198,0.729,0.841,0.712,1.179
	c-0.016,0.338-2.546,5.006-2.546,5.006l0.113,0.072l4.453,2.902l2.557-3.972c0,0,0.72-1.275,1.75-1.059
	c1.029,0.216,1.641,1.026,0.614,2.973c-1.026,1.946-2.196,3.613-2.196,3.613l2.102,0.99c0,0-1.639,4.06-4.319,5.616
	c-2.679,1.556-5.643,3.501-5.212,3.868l-1.228,2.013l-1.899-0.971c0,0-6.299,13.803-6.632,17.512
	c-0.331,3.709-3.275,10.332,0.09,15.049c2.02,2.834,8.677,1.836,12.149,1.148c3.472-0.689,8.55-2.744,11.252-3.924
	c2.701-1.18,23.866-11.725,24.335-11.711c0.471,0.012,2.598-0.902,0.594,1.268c-2.006,2.17-15.535,11.326-22.705,14.045
	c-7.17,2.719-20.457,8.748-28.034,3.467c-7.579-5.285-2.721-17.59-1.932-20.043c0.79-2.455,2.55-9.455,5.868-15.945
	c0.714-1.398,1.513-3,1.479-2.933c-0.033,0.068-0.144-0.007-0.144-0.007l-1.517-0.762c0,0,1.811-1.924,1.718-4.277
	c-0.092-2.353-0.424-7.453,1.826-10.508c0,0,0.212-0.443,0.493-0.269c0.09,0.006,0.188,0.074,0.367,0.141
	c0.511,0.189,1.318,0.543,1.318,0.543l-0.071,0.121l0.037-0.063l2.379-4.048C23.842,23.613,24.67,22.069,26.069,22.578z"/>
<path fill="#FFFFFF" stroke="#000000" stroke-miterlimit="10" d="M31.573,64.168c-0.217-0.533,0.138-1.102,0.401-1.316
	c0.264-0.213,5.43-1.461,5.43-1.461l-0.02-0.131l-0.817-5.246l-4.669,0.762c0,0-1.432,0.318-1.96-0.59s-0.333-1.902,1.802-2.445
	c2.136-0.539,4.161-0.787,4.161-0.787l-0.67-2.223c0,0,4.12-1.5,7.071-0.553c2.953,0.945,6.382,1.84,6.368,1.277l2.321-0.438
	l0.548,2.057c0,0,14.492-4.563,17.476-6.797c2.983-2.236,9.887-4.485,11.147-10.139c0.758-3.394-4.439-7.663-7.277-9.777
	c-2.835-2.115-7.763-4.507-10.448-5.721s-24.7-9.854-25.005-10.212c-0.305-0.358-2.409-1.325,0.549-1.289
	c2.957,0.036,18.828,3.944,25.649,7.442c6.821,3.498,20.2,9.318,21.339,18.474c1.137,9.155-11.275,13.786-13.631,14.843
	c-2.356,1.057-8.746,4.436-15.798,6.316c-1.52,0.406-3.247,0.885-3.175,0.867c0.073-0.021,0.091,0.109,0.091,0.109l0.448,1.637
	c0,0-2.645-0.057-4.335,1.586c-1.689,1.643-5.264,5.301-9.046,5.678c0,0-0.472,0.139-0.53-0.186c-0.055-0.07-0.07-0.191-0.141-0.367
	c-0.2-0.506-0.477-1.342-0.477-1.342l0.139-0.029l-0.073,0.016l-4.606,0.943C33.833,65.127,32.131,65.547,31.573,64.168z"/>
</svg>
