<?xml version="1.0" encoding="utf-8"?>
<!-- Generator: Adobe Illustrator 16.0.3, SVG Export Plug-In . SVG Version: 6.00 Build 0)  -->
<!DOCTYPE svg PUBLIC "-//W3C//DTD SVG 1.1//EN" "http://www.w3.org/Graphics/SVG/1.1/DTD/svg11.dtd">
<svg version="1.1" id="Capa_1" xmlns="http://www.w3.org/2000/svg" xmlns:xlink="http://www.w3.org/1999/xlink" x="0px" y="0px"
	 width="85.04px" height="85.04px" viewBox="0 0 85.04 85.04" enable-background="new 0 0 85.04 85.04" xml:space="preserve">
<g id="Icons">
	<g id="Rounded" transform="translate(-747.000000, -2904.000000)">
		<g id="Image" transform="translate(100.000000, 2626.000000)">
			<g id="_x2D_Round-_x2F_-Image-_x2F_-remove_x5F_red_x5F_eye" transform="translate(646.000000, 274.000000)">
				<g>
					<polygon id="Path" fill="none" points="1,4 86.04,4 86.04,89.04 1,89.04 					"/>
					<path id="_xD83D__xDD39_-Icon-Color" fill="#1D1D1D" d="M43.519,19.945c-17.716,0-32.845,11.019-38.976,26.574
						c6.13,15.56,21.26,26.577,38.976,26.577c17.719,0,32.847-11.017,38.977-26.577C76.366,30.963,61.238,19.945,43.519,19.945z
						 M43.519,64.238c-9.778,0-17.716-7.939-17.716-17.719s7.938-17.716,17.716-17.716c9.78,0,17.719,7.936,17.719,17.716
						S53.298,64.238,43.519,64.238z M43.519,35.889c-5.883,0-10.63,4.747-10.63,10.63c0,5.884,4.747,10.631,10.63,10.631
						c5.884,0,10.631-4.747,10.631-10.631C54.15,40.636,49.403,35.889,43.519,35.889z"/>
				</g>
			</g>
		</g>
	</g>
</g>
</svg>
