<?xml version="1.0" encoding="utf-8"?>
<!-- Generator: Adobe Illustrator 16.0.3, SVG Export Plug-In . SVG Version: 6.00 Build 0)  -->
<!DOCTYPE svg PUBLIC "-//W3C//DTD SVG 1.1//EN" "http://www.w3.org/Graphics/SVG/1.1/DTD/svg11.dtd">
<svg version="1.1" id="Capa_1" xmlns="http://www.w3.org/2000/svg" xmlns:xlink="http://www.w3.org/1999/xlink" x="0px" y="0px"
	 width="85.04px" height="85.04px" viewBox="0 0 85.04 85.04" enable-background="new 0 0 85.04 85.04" xml:space="preserve">
<g id="Icons">
	<g id="Rounded" transform="translate(-747.000000, -2904.000000)">
		<g id="Image" transform="translate(100.000000, 2626.000000)">
			<g id="_x2D_Round-_x2F_-Image-_x2F_-remove_x5F_red_x5F_eye" transform="translate(646.000000, 274.000000)">
				<g>
					<polygon id="Path" fill="none" points="32,35 56,35 56,59 32,59 					"/>
					<path id="_xD83D__xDD39_-Icon-Color" fill="#1D1D1D" d="M44,39.5c-5,0-9.27,3.11-11,7.5c1.73,4.391,6,7.5,11,7.5
						s9.27-3.109,11-7.5C53.27,42.61,49,39.5,44,39.5z M44,52c-2.76,0-5-2.24-5-5c0-2.76,2.24-5,5-5s5,2.24,5,5
						C49,49.76,46.76,52,44,52z M44,44c-1.66,0-3,1.34-3,3s1.34,3,3,3s3-1.34,3-3S45.66,44,44,44z"/>
				</g>
			</g>
		</g>
	</g>
</g>
</svg>
